<svg xmlns="http://www.w3.org/2000/svg" id="svg" width="100%" height="100%" viewBox="0 0 1440 390"><style>@keyframes pathAnim-0{0%{d:path(&quot;M 0,400 C 0,400 0,80 0,80 C 114,82 228,84 338,86 C 447,87 550,88 678,79 C 805,70 956,51 1087,50 C 1217,48 1328,64 1440,80 C 1440,80 1440,400 1440,400 Z&quot;)}33%{d:path(&quot;M 0,400 C 0,400 0,80 0,80 C 109,67 218,55 355,58 C 491,60 655,77 761,85 C 866,93 912,92 1016,90 C 1119,87 1279,83 1440,80 C 1440,80 1440,400 1440,400 Z&quot;)}66%{d:path(&quot;M 0,400 C 0,400 0,80 0,80 C 122,70 245,60 368,69 C 490,77 612,103 729,106 C 845,108 957,86 1075,78 C 1192,69 1316,74 1440,80 C 1440,80 1440,400 1440,400 Z&quot;)}to{d:path(&quot;M 0,400 C 0,400 0,80 0,80 C 133,82 266,85 363,86 C 459,86 519,85 654,79 C 788,72 998,59 1142,59 C 1285,58 1362,69 1440,80 C 1440,80 1440,400 1440,400 Z&quot;)}}@keyframes pathAnim-1{0%{d:path(&quot;M 0,400 C 0,400 0,160 0,160 C 89,158 179,156 297,162 C 414,167 558,180 702,176 C 845,171 988,150 1111,145 C 1233,139 1336,149 1440,160 C 1440,160 1440,400 1440,400 Z&quot;)}33%{d:path(&quot;M 0,400 C 0,400 0,160 0,160 C 148,151 297,143 399,149 C 500,154 555,172 661,173 C 766,173 924,156 1063,151 C 1201,145 1320,152 1440,160 C 1440,160 1440,400 1440,400 Z&quot;)}66%{d:path(&quot;M 0,400 C 0,400 0,160 0,160 C 110,152 220,144 327,147 C 433,149 535,161 677,162 C 818,162 1000,152 1134,150 C 1267,147 1353,153 1440,160 C 1440,160 1440,400 1440,400 Z&quot;)}to{d:path(&quot;M 0,400 C 0,400 0,160 0,160 C 92,156 184,152 316,154 C 447,155 618,163 736,161 C 853,158 918,145 1027,144 C 1135,142 1287,151 1440,160 C 1440,160 1440,400 1440,400 Z&quot;)}}@keyframes pathAnim-2{0%{d:path(&quot;M 0,400 C 0,400 0,240 0,240 C 107,240 215,240 337,239 C 458,238 592,234 710,229 C 827,223 928,214 1047,216 C 1165,217 1302,228 1440,240 C 1440,240 1440,400 1440,400 Z&quot;)}33%{d:path(&quot;M 0,400 C 0,400 0,240 0,240 C 106,244 213,249 325,243 C 436,236 552,218 671,212 C 789,205 909,212 1038,219 C 1166,225 1303,232 1440,240 C 1440,240 1440,400 1440,400 Z&quot;)}66%{d:path(&quot;M 0,400 C 0,400 0,240 0,240 C 111,226 222,213 343,218 C 463,222 592,244 708,257 C 823,269 925,272 1045,268 C 1164,263 1302,251 1440,240 C 1440,240 1440,400 1440,400 Z&quot;)}to{d:path(&quot;M 0,400 C 0,400 0,240 0,240 C 145,260 290,280 394,269 C 497,257 558,214 660,214 C 761,213 903,253 1040,265 C 1176,276 1308,258 1440,240 C 1440,240 1440,400 1440,400 Z&quot;)}}@keyframes pathAnim-3{0%{d:path(&quot;M 0,400 C 0,400 0,320 0,320 C 95,318 190,316 298,316 C 405,315 524,315 663,310 C 802,305 961,295 1094,296 C 1226,296 1333,308 1440,320 C 1440,320 1440,400 1440,400 Z&quot;)}33%{d:path(&quot;M 0,400 C 0,400 0,320 0,320 C 131,310 263,301 375,309 C 486,316 578,342 703,343 C 827,344 982,320 1111,313 C 1239,305 1339,312 1440,320 C 1440,320 1440,400 1440,400 Z&quot;)}66%{d:path(&quot;M 0,400 C 0,400 0,320 0,320 C 122,315 244,310 373,312 C 501,313 635,322 763,330 C 890,337 1012,343 1124,342 C 1235,340 1337,330 1440,320 C 1440,320 1440,400 1440,400 Z&quot;)}to{d:path(&quot;M 0,400 C 0,400 0,320 0,320 C 98,317 197,315 307,307 C 416,298 536,284 658,293 C 779,301 902,333 1033,342 C 1163,350 1301,335 1440,320 C 1440,320 1440,400 1440,400 Z&quot;)}}</style><defs><linearGradient id="gradient" x1="50%" x2="50%" y1="100%" y2="0%"><stop offset="5%" stop-color="#005f6b"/><stop offset="95%" stop-color="#ff6b6b"/></linearGradient></defs><path fill="url(#gradient)" fill-opacity=".265" stroke-width="0" d="M0 400V80c114.464 2.286 228.929 4.571 338 6 109.071 1.429 212.75 2 340-7s278.071-27.571 409-29c130.929-1.429 241.964 14.286 353 30v320Z" style="animation:pathAnim-0 16s ease-in-out infinite alternate" transform="rotate(-180 720 200)"/><path fill="url(#gradient)" fill-opacity=".4" stroke-width="0" d="M0 400V160c89.929-1.75 179.857-3.5 297 2s261.5 18.25 405 14 286.143-25.5 409-31c122.857-5.5 225.929 4.75 329 15v240Z" style="animation:pathAnim-1 14s ease-in-out infinite alternate" transform="rotate(-180 720 200)"/><path fill="url(#gradient)" fill-opacity=".53" stroke-width="0" d="M0 400V240c107.929.179 215.857.357 337-1s255.5-4.25 373-10 218.143-14.357 337-13c118.857 1.357 255.929 12.679 393 24v160Z" style="animation:pathAnim-2 12s ease-in-out infinite alternate" transform="rotate(-180 720 200)"/><path fill="url(#gradient)" stroke-width="0" d="M0 400v-80c95.429-1.571 190.857-3.143 298-4 107.143-.857 226-1 365-6s298.143-14.857 431-14c132.857.857 239.429 12.429 346 24v80Z" style="animation:pathAnim-3 10s ease-in-out infinite alternate" transform="rotate(-180 720 200)"/></svg>